ply
format ascii 1.0
comment Created by Blender 2.79 (sub 0) - www.blender.org, source file: 'guitarMinimal.blend'
element vertex 315
property float x
property float y
property float z
property float nx
property float ny
property float nz
element face 272
property list uchar uint vertex_indices
end_header
-4.192079 0.058395 -0.022229 -0.243660 0.087741 0.965850
-4.207043 0.059804 -0.026095 -0.241951 0.089267 0.966155
-4.219362 0.006272 -0.024624 -0.240333 0.082034 0.967193
-4.204169 0.004054 -0.020665 -0.242103 0.080935 0.966857
-4.111762 -0.009413 0.003741 -0.244331 0.077578 0.966552
-4.101066 0.049848 0.001615 -0.245979 0.083102 0.965697
-4.075384 0.123567 0.001307 -0.250008 0.102268 0.962798
-4.162778 0.125550 -0.021454 -0.247658 0.111576 0.962371
-4.177147 0.125879 -0.025142 -0.246010 0.114872 0.962401
-3.844703 0.025777 0.068839 -0.246895 0.074831 0.966124
-3.851473 -0.047342 0.072546 -0.245338 0.071993 0.966735
-3.591748 -0.085218 0.141230 -0.246254 0.067629 0.966826
-3.588872 0.001756 0.135948 -0.247749 0.068484 0.966369
-3.583490 0.112449 0.129550 -0.251106 0.071352 0.965300
-3.829213 0.117987 0.065478 -0.250649 0.084506 0.964354
-4.209665 -0.020646 -0.019954 -0.241127 0.080752 0.967101
-4.116624 -0.036349 0.004707 -0.243416 0.077425 0.966796
-4.224963 -0.018060 -0.023955 -0.239326 0.081790 0.967467
-4.227202 -0.027793 -0.023688 -0.239021 0.081729 0.967559
-4.211864 -0.030527 -0.019670 -0.240791 0.080691 0.967193
-4.118569 -0.047124 0.005093 -0.243141 0.077395 0.966887
-3.854549 -0.080577 0.074231 -0.244514 0.071902 0.966948
-3.593056 -0.124751 0.143632 -0.245552 0.067629 0.967009
-3.855780 -0.093871 0.074905 -0.244331 0.071718 0.967009
-3.593579 -0.140565 0.144592 -0.245399 0.067476 0.967040
-4.028526 0.255065 -0.005297 -0.279946 0.179449 0.943083
-3.958374 0.268370 0.013263 -0.278329 0.148717 0.948882
-3.953069 0.274251 0.013852 -0.278451 0.136021 0.950743
-4.022437 0.260305 -0.004520 -0.283364 0.177343 0.942442
-4.033842 0.258015 -0.007486 -0.281838 0.191870 0.940062
-4.040059 0.252880 -0.008295 -0.279336 0.191443 0.940886
-4.062858 0.234053 -0.011259 -0.269784 0.179022 0.946104
-4.050852 0.235851 -0.008149 -0.270882 0.168981 0.947630
-3.977824 0.246807 0.011100 -0.270852 0.142369 0.952025
-3.760769 0.305850 0.065602 -0.272378 0.105106 0.956420
-3.563210 0.343319 0.117919 -0.267922 0.077090 0.960326
-3.562307 0.352806 0.117455 -0.268807 0.075808 0.960173
-3.757674 0.313535 0.065663 -0.272805 0.098514 0.956999
-3.772119 0.277670 0.065379 -0.266884 0.102695 0.958220
-3.566526 0.308530 0.119623 -0.263771 0.076540 0.961516
-4.105653 0.188691 -0.015147 -0.257729 0.145360 0.955199
-4.025564 0.193880 0.005791 -0.259377 0.127201 0.957335
-4.118819 0.187841 -0.018536 -0.256172 0.152013 0.954588
-3.799976 0.208500 0.064831 -0.258187 0.096286 0.961272
-3.574664 0.223141 0.123804 -0.257149 0.074740 0.963469
-3.499456 -0.006638 0.159445 -0.226234 0.065950 0.971831
-3.430222 -0.013401 0.174379 -0.202582 0.065432 0.977050
-3.428093 0.110174 0.166543 -0.202582 0.065432 0.977050
-3.497436 0.110593 0.152011 -0.227851 0.066378 0.971404
-3.501039 -0.098527 0.165272 -0.225532 0.065828 0.971984
-3.431891 -0.110262 0.180521 -0.202582 0.065432 0.977050
-3.234939 -0.032525 0.215797 -0.200995 0.065432 0.977386
-3.038948 -0.051716 0.257408 -0.203467 0.065432 0.976867
-3.036201 0.107717 0.247298 -0.203467 0.065432 0.976867
-3.232502 0.108946 0.206826 -0.200995 0.065432 0.977386
-3.236850 -0.143414 0.222829 -0.200995 0.065432 0.977386
-3.041100 -0.176683 0.265333 -0.203467 0.065432 0.976867
-3.501759 -0.140294 0.167921 -0.225196 0.065828 0.972076
-3.432649 -0.154289 0.183313 -0.202582 0.065432 0.977050
-3.502047 -0.157002 0.168980 -0.222663 0.065767 0.972655
-3.432953 -0.171900 0.184430 -0.202368 0.065432 0.977111
-3.237718 -0.193818 0.226025 -0.200995 0.065432 0.977386
-3.042079 -0.233487 0.268935 -0.203467 0.065432 0.976867
-3.238066 -0.213979 0.227303 -0.200995 0.065432 0.977386
-3.042470 -0.256208 0.270375 -0.203772 0.065432 0.976806
-3.493198 0.356591 0.136412 -0.235511 0.067202 0.969543
-3.423626 0.369482 0.150100 -0.202582 0.065432 0.977050
-3.423442 0.380151 0.149424 -0.202368 0.065432 0.977111
-3.493024 0.366712 0.135771 -0.232124 0.066988 0.970367
-3.493837 0.319480 0.138766 -0.233711 0.067110 0.969970
-3.424300 0.330364 0.152581 -0.202582 0.065432 0.977050
-3.227387 0.405809 0.188002 -0.200995 0.065432 0.977386
-3.030437 0.442271 0.226084 -0.203467 0.065432 0.976867
-3.030200 0.456035 0.225211 -0.203772 0.065432 0.976806
-3.227177 0.418023 0.187227 -0.200995 0.065432 0.977386
-3.228159 0.361025 0.190841 -0.200995 0.065432 0.977386
-3.031306 0.391800 0.229284 -0.203467 0.065432 0.976867
-3.495407 0.228390 0.144542 -0.230689 0.066866 0.970702
-3.425954 0.234345 0.158669 -0.202582 0.065432 0.977050
-3.230053 0.251100 0.197812 -0.200995 0.065432 0.977386
-3.033441 0.267919 0.237140 -0.203467 0.065432 0.976867
-2.954803 -0.056817 0.274150 0.016144 0.062990 0.997864
-2.941920 -0.047429 0.273640 -0.041993 0.063936 0.997040
-2.939191 0.110967 0.263596 -0.041993 0.063936 0.997040
-2.951963 0.108062 0.263695 0.016144 0.062990 0.997864
-2.957003 0.107474 0.263929 -0.078799 0.064425 0.994781
-2.959865 -0.058637 0.274462 -0.078768 0.064425 0.994781
-2.962108 -0.188838 0.282718 -0.078768 0.064425 0.994781
-2.957030 -0.186052 0.282345 0.016144 0.062990 0.997864
-2.944059 -0.171582 0.281513 -0.041993 0.063936 0.997040
-2.910735 -0.024683 0.274588 -0.070009 0.064302 0.995453
-2.872178 -0.001023 0.275495 -0.033418 0.063814 0.997375
-2.870011 0.124785 0.267518 -0.033418 0.063814 0.997375
-2.908276 0.118099 0.265534 -0.070009 0.064302 0.995453
-2.912663 -0.136598 0.281685 -0.070009 0.064302 0.995453
-2.873877 -0.099634 0.281748 -0.033418 0.063814 0.997375
-2.958042 -0.244796 0.286070 0.016144 0.062990 0.997864
-2.945031 -0.228016 0.285092 -0.041993 0.063936 0.997040
-2.963127 -0.248020 0.286471 -0.078768 0.064425 0.994781
-2.963534 -0.271693 0.287972 -0.106632 0.064730 0.992157
-2.958447 -0.268293 0.287560 0.028932 0.062746 0.997589
-2.945420 -0.250589 0.286523 -0.020600 0.063601 0.997742
-2.913539 -0.187469 0.284910 -0.070009 0.064302 0.995453
-2.874650 -0.144457 0.284591 -0.033418 0.063814 0.997375
-2.913890 -0.207817 0.286201 -0.074099 0.064364 0.995148
-2.874958 -0.162386 0.285727 -0.046754 0.063997 0.996826
-2.946002 0.454042 0.241756 0.016144 0.062990 0.997864
-2.933464 0.443343 0.242520 -0.041993 0.063936 0.997040
-2.933229 0.457018 0.241653 -0.025971 0.063692 0.997620
-2.945757 0.468277 0.240853 0.025086 0.062807 0.997681
-2.950751 0.470380 0.240917 -0.092502 0.064577 0.993591
-2.950997 0.456039 0.241826 -0.078768 0.064425 0.994781
-2.951903 0.403455 0.245160 -0.078768 0.064425 0.994781
-2.946901 0.401849 0.245065 0.016144 0.062990 0.997864
-2.934328 0.393202 0.245699 -0.041993 0.063936 0.997040
-2.903113 0.417711 0.246535 -0.070040 0.064302 0.995453
-2.865462 0.388779 0.250777 -0.033418 0.063814 0.997375
-2.865275 0.399641 0.250089 -0.044313 0.063967 0.996948
-2.902901 0.430038 0.245753 -0.073122 0.064364 0.995239
-2.903892 0.372512 0.249401 -0.070009 0.064302 0.995453
-2.866148 0.348953 0.253303 -0.033418 0.063814 0.997375
-2.949108 0.273736 0.253189 0.016144 0.062990 0.997864
-2.936449 0.270127 0.253504 -0.041993 0.063936 0.997040
-2.954127 0.274386 0.253345 -0.078799 0.064425 0.994781
-2.905804 0.261569 0.256436 -0.070009 0.064302 0.995453
-2.867832 0.251200 0.259502 -0.033418 0.063814 0.997375
-2.967585 -0.058678 0.272922 -0.200690 0.065432 0.977447
-2.964725 0.107293 0.262398 -0.200690 0.065432 0.977447
-2.969826 -0.188770 0.281172 -0.200690 0.065432 0.977447
-2.970845 -0.247902 0.284921 -0.200690 0.065432 0.977447
-2.971252 -0.271555 0.286421 -0.200293 0.065432 0.977538
-2.958724 0.455565 0.240314 -0.200690 0.065432 0.977447
-2.958478 0.469894 0.239405 -0.200262 0.065432 0.977538
-2.959630 0.403025 0.243645 -0.200690 0.065432 0.977447
-2.961852 0.274064 0.251823 -0.200690 0.065432 0.977447
-4.235257 0.062461 -0.033386 -0.241798 0.090884 0.966033
-4.204239 0.126500 -0.032096 -0.245888 0.118656 0.961974
-4.237694 0.127267 -0.040683 -0.244392 0.110843 0.963317
-4.270097 0.065742 -0.042388 -0.241554 0.090274 0.966155
-4.283384 0.015619 -0.041306 -0.240028 0.083712 0.967132
-4.248010 0.010455 -0.032088 -0.240150 0.083102 0.967162
-4.253806 -0.013185 -0.031499 -0.239174 0.082797 0.967437
-4.289423 -0.007164 -0.040814 -0.239174 0.083438 0.967376
-4.282306 -0.015589 -0.038328 -0.238807 0.083163 0.967467
-4.256125 -0.022640 -0.031263 -0.238899 0.082644 0.967498
-4.061805 0.248761 -0.013947 -0.280465 0.202277 0.938292
-4.055345 0.253697 -0.013080 -0.283090 0.201849 0.937590
-4.076949 0.248525 -0.018495 -0.284097 0.212378 0.934965
-4.088658 0.243674 -0.020925 -0.278726 0.206793 0.937834
-4.113450 0.226475 -0.024367 -0.266030 0.188086 0.945402
-4.085496 0.230662 -0.017124 -0.270730 0.189734 0.943754
-4.143646 0.186238 -0.024925 -0.256447 0.159490 0.953276
-4.174304 0.184259 -0.032815 -0.251686 0.148961 0.956267
1.741011 -0.077720 0.309104 0.022095 0.062868 0.997772
2.022356 -0.086251 0.302513 0.029847 0.062716 0.997559
2.024573 0.042424 0.294354 0.029847 0.062716 0.997559
1.743189 0.048700 0.301087 0.022095 0.062868 0.997772
1.281675 0.058077 0.309265 0.016205 0.062990 0.997864
1.279559 -0.064762 0.317055 0.016205 0.062990 0.997864
1.277900 -0.161047 0.323160 0.016205 0.062990 0.997864
1.739304 -0.176810 0.315387 0.022095 0.062868 0.997772
2.020618 -0.187108 0.308909 0.029847 0.062716 0.997559
2.135191 -0.089738 0.298838 0.056856 0.062197 0.996429
2.163772 -0.090704 0.296620 0.079287 0.061708 0.994934
2.166008 0.039105 0.288389 0.079287 0.061708 0.994934
2.137424 0.039841 0.290621 0.056856 0.062197 0.996429
2.133441 -0.191305 0.305278 0.056856 0.062197 0.996429
2.162019 -0.192451 0.303072 0.079287 0.061708 0.994934
1.738528 -0.221851 0.318243 0.022095 0.062868 0.997772
2.019828 -0.232952 0.311816 0.029847 0.062716 0.997559
1.277146 -0.204812 0.325936 0.016205 0.062990 0.997864
1.276844 -0.222318 0.327046 0.016236 0.062990 0.997864
1.738218 -0.239868 0.319386 0.022156 0.062868 0.997772
2.019512 -0.251290 0.312979 0.029908 0.062716 0.997559
2.132646 -0.237471 0.308206 0.056856 0.062197 0.996429
2.132328 -0.255938 0.309377 0.055574 0.062227 0.996490
2.153839 -0.252259 0.307434 0.079287 0.061708 0.994934
2.161222 -0.238699 0.306005 0.079287 0.061708 0.994934
1.747760 0.313977 0.284266 0.026978 0.096927 0.994903
2.029043 0.312275 0.274706 0.067598 0.249672 0.965941
2.029052 0.323227 0.271476 0.081362 0.370708 0.925169
1.747948 0.324892 0.283573 0.029084 0.120243 0.992309
1.286299 0.326448 0.292248 0.016236 0.062990 0.997864
1.286116 0.315843 0.292920 0.016205 0.062990 0.997864
1.285446 0.276957 0.295386 0.016205 0.062990 0.997864
1.747071 0.273958 0.286803 0.023835 0.069460 0.997284
2.028478 0.271660 0.279184 0.044252 0.101718 0.993805
2.141380 0.311120 0.263275 0.209479 0.458205 0.863796
2.169244 0.310238 0.250907 0.324778 0.558763 0.763054
2.161512 0.318073 0.240836 0.339244 0.768487 0.542497
2.140844 0.321679 0.252461 0.244484 0.681967 0.689261
2.141220 0.270572 0.273454 0.132298 0.167730 0.976897
2.169629 0.270088 0.268670 0.207160 0.210395 0.955382
1.745378 0.175729 0.293032 0.022401 0.063662 0.997711
2.026801 0.171718 0.286155 0.032258 0.067415 0.997192
1.283802 0.181509 0.301438 0.016205 0.062990 0.997864
2.139667 0.170045 0.282365 0.070070 0.075228 0.994690
2.168256 0.169540 0.280118 0.101505 0.080020 0.991607
-2.837177 0.011108 0.274865 -0.022156 0.063631 0.997711
-2.838733 -0.079223 0.280593 -0.022156 0.063631 0.997711
-2.805341 -0.067618 0.281200 -0.109012 0.064760 0.991913
-2.803878 0.017251 0.275818 -0.109012 0.064760 0.991913
-2.802013 0.125527 0.268952 -0.108982 0.064760 0.991913
-2.835191 0.126353 0.267557 -0.022156 0.063631 0.997711
-2.839441 -0.120282 0.283197 -0.022156 0.063631 0.997711
-2.839724 -0.136706 0.284238 -0.016266 0.063540 0.997833
-2.806271 -0.121626 0.284624 -0.091220 0.064577 0.993713
-2.806005 -0.106195 0.283646 -0.109012 0.064760 0.991913
-2.770428 0.022945 0.281475 -0.199896 0.065432 0.977599
-2.771807 -0.057074 0.286549 -0.199896 0.065432 0.977599
-2.733045 -0.049192 0.294885 -0.209082 0.065462 0.975677
-2.731730 0.027218 0.290040 -0.209082 0.065462 0.975677
-2.730050 0.124702 0.283858 -0.209082 0.065462 0.975677
-2.768669 0.125032 0.275001 -0.199896 0.065432 0.977599
-2.772434 -0.093446 0.288855 -0.199896 0.065432 0.977599
-2.772685 -0.107994 0.289778 -0.195441 0.065401 0.978515
-2.733883 -0.097817 0.297968 -0.210517 0.065462 0.975372
-2.733644 -0.083924 0.297087 -0.209082 0.065462 0.975677
-2.682684 0.029099 0.299719 -0.196448 0.065401 0.978301
-2.683970 -0.045577 0.304454 -0.196448 0.065401 0.978301
-2.635477 -0.044868 0.314190 -0.213874 0.065462 0.974639
-2.634198 0.029391 0.309481 -0.213874 0.065462 0.974639
-2.632565 0.124131 0.303474 -0.213874 0.065462 0.974639
-2.681043 0.124372 0.293677 -0.196448 0.065401 0.978301
-2.684555 -0.079521 0.306606 -0.196448 0.065401 0.978301
-2.684789 -0.093099 0.307467 -0.196417 0.065401 0.978301
-2.636291 -0.092124 0.317187 -0.213874 0.065462 0.974639
-2.636058 -0.078622 0.316331 -0.213874 0.065462 0.974639
-2.597177 0.028897 0.318298 -0.154180 0.065157 0.985870
-2.598462 -0.045703 0.323028 -0.154180 0.065157 0.985870
-2.521024 -0.047876 0.329173 -0.042848 0.063936 0.997009
-2.519730 0.027277 0.324408 -0.042848 0.063936 0.997009
-2.518077 0.123157 0.318328 -0.042848 0.063936 0.997009
-2.595537 0.124072 0.312263 -0.154180 0.065157 0.985870
-2.599046 -0.079612 0.325179 -0.154210 0.065157 0.985870
-2.599280 -0.093176 0.326039 -0.153081 0.065157 0.986053
-2.521849 -0.095701 0.332206 -0.042573 0.063936 0.997040
-2.521613 -0.082037 0.331340 -0.042848 0.063936 0.997009
-2.349962 0.024189 0.326051 -0.004059 0.063326 0.997955
-2.351261 -0.051183 0.330830 -0.004059 0.063326 0.997955
-1.937915 -0.061886 0.331367 -0.000580 0.063265 0.997986
-1.936589 0.015112 0.326485 -0.000580 0.063265 0.997986
-1.934897 0.113346 0.320255 -0.000580 0.063265 0.997986
-2.348305 0.120348 0.319953 -0.004059 0.063326 0.997955
-2.351851 -0.085443 0.333003 -0.004059 0.063326 0.997955
-2.352087 -0.099147 0.333872 -0.004059 0.063326 0.997955
-1.938759 -0.110885 0.334474 -0.000580 0.063265 0.997986
-1.938518 -0.096885 0.333586 -0.000580 0.063265 0.997986
-1.128324 -0.004475 0.328967 -0.000336 0.063265 0.997986
-1.129733 -0.086248 0.334153 -0.000336 0.063265 0.997986
-0.188297 -0.115395 0.335239 0.004151 0.063204 0.997986
-0.186788 -0.027776 0.329683 0.004151 0.063204 0.997986
-0.184862 0.084008 0.322594 0.004151 0.063204 0.997986
-1.126526 0.099851 0.322352 -0.000336 0.063265 0.997986
-1.130373 -0.123418 0.336510 -0.000336 0.063265 0.997986
-1.130629 -0.138286 0.337453 -0.000336 0.063265 0.997986
-0.189258 -0.171152 0.338774 0.004212 0.063204 0.997986
-0.188983 -0.155221 0.337764 0.004151 0.063204 0.997986
0.626399 -0.047993 0.324813 0.010498 0.063082 0.997925
0.624806 -0.140451 0.330676 0.010498 0.063082 0.997925
0.628432 0.069965 0.317333 0.010498 0.063082 0.997925
0.624082 -0.182478 0.333341 0.010498 0.063082 0.997925
0.623793 -0.199288 0.334407 0.010529 0.063082 0.997925
-2.831025 0.368181 0.252223 -0.022156 0.063631 0.997711
-2.831653 0.331699 0.254536 -0.022156 0.063631 0.997711
-2.798689 0.318457 0.256718 -0.109012 0.064760 0.991913
-2.798099 0.352733 0.254545 -0.108982 0.064760 0.991913
-2.797938 0.362081 0.253952 -0.091220 0.064577 0.993713
-2.830854 0.378131 0.251592 -0.016663 0.063540 0.997833
-2.833196 0.242153 0.260214 -0.022156 0.063631 0.997711
-2.800138 0.234326 0.262053 -0.109012 0.064760 0.991913
-2.764979 0.339251 0.261417 -0.199896 0.065432 0.977599
-2.765535 0.306935 0.263466 -0.199896 0.065432 0.977599
-2.727057 0.298402 0.272844 -0.209082 0.065462 0.975677
-2.726525 0.329262 0.270887 -0.209082 0.065462 0.975677
-2.726380 0.337678 0.270353 -0.210517 0.065462 0.975372
-2.764827 0.348065 0.260858 -0.195441 0.065401 0.978515
-2.766902 0.227612 0.268496 -0.199896 0.065432 0.977599
-2.728362 0.222656 0.277647 -0.209082 0.065462 0.975677
-2.677598 0.324290 0.281000 -0.196448 0.065401 0.978301
-2.678117 0.294131 0.282913 -0.196448 0.065401 0.978301
-2.629657 0.292942 0.292769 -0.213874 0.065462 0.974639
-2.629140 0.322933 0.290868 -0.213874 0.065462 0.974639
-2.628999 0.331112 0.290349 -0.213874 0.065493 0.974639
-2.677456 0.332515 0.280479 -0.196417 0.065401 0.978301
-2.679393 0.220103 0.287607 -0.196448 0.065401 0.978301
-2.630926 0.219328 0.297437 -0.213874 0.065462 0.974639
-2.592096 0.323786 0.299599 -0.154210 0.065157 0.985870
-2.592616 0.293657 0.301509 -0.154180 0.065157 0.985870
-2.515134 0.293999 0.307495 -0.042848 0.063936 0.997009
-2.514612 0.324351 0.305570 -0.042848 0.063936 0.997009
-2.514469 0.332628 0.305045 -0.042573 0.063936 0.997040
-2.591955 0.332003 0.299078 -0.153081 0.065157 0.986053
-2.593889 0.219706 0.306199 -0.154180 0.065157 0.985870
-2.516418 0.219499 0.312219 -0.042848 0.063936 0.997009
-2.344829 0.322129 0.307158 -0.004059 0.063326 0.997955
-2.345354 0.291688 0.309088 -0.004059 0.063326 0.997955
-1.931881 0.288384 0.309156 -0.000580 0.063265 0.997986
-1.931345 0.319481 0.307184 -0.000580 0.063265 0.997986
-1.931199 0.327962 0.306646 -0.000580 0.063265 0.997986
-2.344686 0.330431 0.306632 -0.004059 0.063326 0.997955
-2.346641 0.216972 0.313826 -0.004059 0.063326 0.997955
-1.933196 0.212055 0.313996 -0.000580 0.063265 0.997986
-1.122754 0.318768 0.308470 -0.000336 0.063265 0.997986
-1.123324 0.285742 0.310564 -0.000336 0.063265 0.997986
-0.181430 0.283188 0.309964 0.004151 0.063204 0.997986
-0.180820 0.318575 0.307720 0.004151 0.063204 0.997986
-0.180654 0.328225 0.307108 0.004212 0.063204 0.997986
-1.122599 0.327774 0.307899 -0.000336 0.063265 0.997986
-1.124720 0.204680 0.315705 -0.000336 0.063265 0.997986
-0.182926 0.196331 0.315472 0.004151 0.063204 0.997986
0.632696 0.317487 0.301638 0.010498 0.063082 0.997925
0.632053 0.280147 0.304005 0.010498 0.063082 0.997925
0.632872 0.327671 0.300992 0.010529 0.063082 0.997925
0.630474 0.188492 0.309817 0.010498 0.063082 0.997925
4 0 1 2 3
4 0 3 4 5
4 0 5 6 7
4 0 7 8 1
4 9 5 4 10
4 9 10 11 12
4 9 12 13 14
4 9 14 6 5
4 15 16 4 3
4 15 3 2 17
4 15 17 18 19
4 15 19 20 16
4 21 22 11 10
4 21 10 4 16
4 21 16 20 23
4 21 23 24 22
4 25 26 27 28
4 25 28 29 30
4 25 30 31 32
4 25 32 33 26
4 34 35 36 37
4 34 37 27 26
4 34 26 33 38
4 34 38 39 35
4 40 41 33 32
4 40 32 31 42
4 40 42 8 7
4 40 7 6 41
4 43 44 39 38
4 43 38 33 41
4 43 41 6 14
4 43 14 13 44
4 45 46 47 48
4 45 48 13 12
4 45 12 11 49
4 45 49 50 46
4 51 52 53 54
4 51 54 47 46
4 51 46 50 55
4 51 55 56 52
4 57 58 50 49
4 57 49 11 22
4 57 22 24 59
4 57 59 60 58
4 61 62 56 55
4 61 55 50 58
4 61 58 60 63
4 61 63 64 62
4 65 66 67 68
4 65 68 36 35
4 65 35 39 69
4 65 69 70 66
4 71 72 73 74
4 71 74 67 66
4 71 66 70 75
4 71 75 76 72
4 77 78 70 69
4 77 69 39 44
4 77 44 13 48
4 77 48 47 78
4 79 80 76 75
4 79 75 70 78
4 79 78 47 54
4 79 54 53 80
4 81 82 83 84
4 81 84 85 86
4 81 86 87 88
4 81 88 89 82
4 90 91 92 93
4 90 93 83 82
4 90 82 89 94
4 90 94 95 91
4 96 97 89 88
4 96 88 87 98
4 96 98 99 100
4 96 100 101 97
4 102 103 95 94
4 102 94 89 97
4 102 97 101 104
4 102 104 105 103
4 106 107 108 109
4 106 109 110 111
4 106 111 112 113
4 106 113 114 107
4 115 116 117 118
4 115 118 108 107
4 115 107 114 119
4 115 119 120 116
4 121 122 114 113
4 121 113 112 123
4 121 123 85 84
4 121 84 83 122
4 124 125 120 119
4 124 119 114 122
4 124 122 83 93
4 124 93 92 125
4 126 86 85 127
4 126 127 53 52
4 126 52 56 128
4 126 128 87 86
4 129 98 87 128
4 129 128 56 62
4 129 62 64 130
4 129 130 99 98
4 131 111 110 132
4 131 132 73 72
4 131 72 76 133
4 131 133 112 111
4 134 123 112 133
4 134 133 76 80
4 134 80 53 127
4 134 127 85 123
4 135 1 8 136
4 135 136 137 138
4 135 138 139 140
4 135 140 2 1
4 141 17 2 140
4 141 140 139 142
4 141 142 143 144
4 141 144 18 17
4 145 30 29 146
4 145 146 147 148
4 145 148 149 150
4 145 150 31 30
4 151 42 31 150
4 151 150 149 152
4 151 152 137 136
4 151 136 8 42
4 153 154 155 156
4 153 156 157 158
4 153 158 159 160
4 153 160 161 154
4 162 163 164 165
4 162 165 155 154
4 162 154 161 166
4 162 166 167 163
4 168 169 161 160
4 168 160 159 170
4 168 170 171 172
4 168 172 173 169
4 174 169 173 175
4 174 175 176 177
4 174 177 167 166
4 174 166 161 169
4 178 179 180 181
4 178 181 182 183
4 178 183 184 185
4 178 185 186 179
4 187 188 189 190
4 187 190 180 179
4 187 179 186 191
4 187 191 192 188
4 193 194 186 185
4 193 185 184 195
4 193 195 157 156
4 193 156 155 194
4 196 197 192 191
4 196 191 186 194
4 196 194 155 165
4 196 165 164 197
4 198 199 200 201
4 198 201 202 203
4 198 203 92 91
4 198 91 95 199
4 204 205 206 207
4 204 207 200 199
4 204 199 95 103
4 204 103 105 205
4 208 209 210 211
4 208 211 212 213
4 208 213 202 201
4 208 201 200 209
4 214 215 216 217
4 214 217 210 209
4 214 209 200 207
4 214 207 206 215
4 218 219 220 221
4 218 221 222 223
4 218 223 212 211
4 218 211 210 219
4 224 225 226 227
4 224 227 220 219
4 224 219 210 217
4 224 217 216 225
4 228 229 230 231
4 228 231 232 233
4 228 233 222 221
4 228 221 220 229
4 234 235 236 237
4 234 237 230 229
4 234 229 220 227
4 234 227 226 235
4 238 239 240 241
4 238 241 242 243
4 238 243 232 231
4 238 231 230 239
4 244 245 246 247
4 244 247 240 239
4 244 239 230 237
4 244 237 236 245
4 248 249 250 251
4 248 251 252 253
4 248 253 242 241
4 248 241 240 249
4 254 255 256 257
4 254 257 250 249
4 254 249 240 247
4 254 247 246 255
4 258 259 159 158
4 258 158 157 260
4 258 260 252 251
4 258 251 250 259
4 261 262 171 170
4 261 170 159 259
4 261 259 250 257
4 261 257 256 262
4 263 264 265 266
4 263 266 267 268
4 263 268 117 116
4 263 116 120 264
4 269 203 202 270
4 269 270 265 264
4 269 264 120 125
4 269 125 92 203
4 271 272 273 274
4 271 274 275 276
4 271 276 267 266
4 271 266 265 272
4 277 213 212 278
4 277 278 273 272
4 277 272 265 270
4 277 270 202 213
4 279 280 281 282
4 279 282 283 284
4 279 284 275 274
4 279 274 273 280
4 285 223 222 286
4 285 286 281 280
4 285 280 273 278
4 285 278 212 223
4 287 288 289 290
4 287 290 291 292
4 287 292 283 282
4 287 282 281 288
4 293 233 232 294
4 293 294 289 288
4 293 288 281 286
4 293 286 222 233
4 295 296 297 298
4 295 298 299 300
4 295 300 291 290
4 295 290 289 296
4 301 243 242 302
4 301 302 297 296
4 301 296 289 294
4 301 294 232 243
4 303 304 305 306
4 303 306 307 308
4 303 308 299 298
4 303 298 297 304
4 309 253 252 310
4 309 310 305 304
4 309 304 297 302
4 309 302 242 253
4 311 312 184 183
4 311 183 182 313
4 311 313 307 306
4 311 306 305 312
4 314 260 157 195
4 314 195 184 312
4 314 312 305 310
4 314 310 252 260
