ply
format ascii 1.0
comment Created by Blender 2.79 (sub 0) - www.blender.org, source file: 'guitarMinimal.blend'
element vertex 240
property float x
property float y
property float z
property float nx
property float ny
property float nz
element face 60
property list uchar uint vertex_indices
end_header
1.996797 0.283943 0.281637 -0.071794 -0.061889 -0.995498
1.988300 -0.209258 0.312911 -0.071794 -0.061889 -0.995498
1.980646 -0.209092 0.313453 -0.071794 -0.061889 -0.995498
1.989143 0.284109 0.282178 -0.071794 -0.061889 -0.995498
1.781507 0.287750 0.283183 -0.071797 -0.061889 -0.995497
1.773009 -0.205451 0.314457 -0.071797 -0.061889 -0.995497
1.765355 -0.205285 0.314999 -0.071797 -0.061889 -0.995497
1.773853 0.287916 0.283724 -0.071797 -0.061889 -0.995497
1.566216 0.291558 0.284728 -0.071797 -0.061889 -0.995497
1.557719 -0.201643 0.316003 -0.071797 -0.061889 -0.995497
1.550065 -0.201477 0.316545 -0.071797 -0.061889 -0.995497
1.558563 0.291724 0.285270 -0.071797 -0.061889 -0.995497
1.350926 0.295365 0.286274 -0.071795 -0.061889 -0.995497
1.342428 -0.197836 0.317549 -0.071795 -0.061889 -0.995497
1.334774 -0.197670 0.318090 -0.071795 -0.061889 -0.995497
1.343272 0.295531 0.286816 -0.071795 -0.061889 -0.995497
1.135635 0.299173 0.287820 -0.071796 -0.061889 -0.995497
1.127138 -0.194028 0.319095 -0.071796 -0.061889 -0.995497
1.119484 -0.193862 0.319636 -0.071796 -0.061889 -0.995497
1.127982 0.299339 0.288362 -0.071796 -0.061889 -0.995497
0.920345 0.302980 0.289366 -0.071796 -0.061889 -0.995497
0.911847 -0.190221 0.320641 -0.071796 -0.061889 -0.995497
0.904193 -0.190055 0.321182 -0.071796 -0.061889 -0.995497
0.912691 0.303146 0.289908 -0.071796 -0.061889 -0.995497
0.705055 0.306787 0.290912 -0.071796 -0.061889 -0.995497
0.696557 -0.186414 0.322186 -0.071796 -0.061889 -0.995497
0.688903 -0.186247 0.322728 -0.071796 -0.061889 -0.995497
0.697401 0.306954 0.291454 -0.071796 -0.061889 -0.995497
0.489764 0.310595 0.292458 -0.071795 -0.061889 -0.995497
0.481266 -0.182606 0.323732 -0.071795 -0.061889 -0.995497
0.473612 -0.182440 0.324274 -0.071795 -0.061889 -0.995497
0.482110 0.310761 0.292999 -0.071795 -0.061889 -0.995497
0.274473 0.314402 0.294004 -0.071797 -0.061889 -0.995497
0.265976 -0.178799 0.325278 -0.071797 -0.061889 -0.995497
0.258322 -0.178632 0.325820 -0.071797 -0.061889 -0.995497
0.266820 0.314569 0.294545 -0.071797 -0.061889 -0.995497
0.059183 0.318210 0.295549 -0.071798 -0.061889 -0.995497
0.050685 -0.174991 0.326824 -0.071798 -0.061889 -0.995497
0.043031 -0.174825 0.327366 -0.071798 -0.061889 -0.995497
0.051529 0.318376 0.296091 -0.071798 -0.061889 -0.995497
1.998025 0.285001 0.298663 0.071795 0.061889 0.995497
1.990371 0.285167 0.299205 0.071795 0.061889 0.995497
1.981874 -0.208034 0.330479 0.071795 0.061889 0.995497
1.989528 -0.208200 0.329937 0.071795 0.061889 0.995497
1.782735 0.288809 0.300209 0.071797 0.061889 0.995497
1.775081 0.288975 0.300750 0.071797 0.061889 0.995497
1.766583 -0.204226 0.332025 0.071797 0.061889 0.995497
1.774237 -0.204392 0.331483 0.071797 0.061889 0.995497
1.567444 0.292616 0.301755 0.071797 0.061889 0.995497
1.559790 0.292782 0.302296 0.071797 0.061889 0.995497
1.551293 -0.200419 0.333571 0.071797 0.061889 0.995497
1.558947 -0.200585 0.333029 0.071797 0.061889 0.995497
1.352154 0.296424 0.303300 0.071797 0.061889 0.995497
1.344500 0.296590 0.303842 0.071797 0.061889 0.995497
1.336002 -0.196611 0.335117 0.071797 0.061889 0.995497
1.343656 -0.196777 0.334575 0.071797 0.061889 0.995497
1.136863 0.300231 0.304846 0.071796 0.061889 0.995497
1.129210 0.300397 0.305388 0.071796 0.061889 0.995497
1.120712 -0.192804 0.336663 0.071796 0.061889 0.995497
1.128366 -0.192970 0.336121 0.071796 0.061889 0.995497
0.921573 0.304038 0.306392 0.071796 0.061889 0.995497
0.913919 0.304205 0.306934 0.071796 0.061889 0.995497
0.905421 -0.188996 0.338208 0.071796 0.061889 0.995497
0.913075 -0.189162 0.337667 0.071796 0.061889 0.995497
0.706282 0.307846 0.307938 0.071796 0.061889 0.995497
0.698629 0.308012 0.308480 0.071796 0.061889 0.995497
0.690131 -0.185189 0.339754 0.071796 0.061889 0.995497
0.697785 -0.185355 0.339213 0.071796 0.061889 0.995497
0.490992 0.311653 0.309484 0.071795 0.061889 0.995497
0.483338 0.311820 0.310026 0.071795 0.061889 0.995497
0.474840 -0.181381 0.341300 0.071795 0.061889 0.995497
0.482494 -0.181548 0.340758 0.071795 0.061889 0.995497
0.275701 0.315461 0.311030 0.071797 0.061889 0.995497
0.268047 0.315627 0.311571 0.071797 0.061889 0.995497
0.259550 -0.177574 0.342846 0.071797 0.061889 0.995497
0.267204 -0.177740 0.342304 0.071797 0.061889 0.995497
0.060411 0.319268 0.312576 0.071798 0.061889 0.995497
0.052757 0.319435 0.313117 0.071798 0.061889 0.995497
0.044259 -0.173766 0.344392 0.071798 0.061889 0.995497
0.051913 -0.173933 0.343850 0.071798 0.061889 0.995497
1.996797 0.283943 0.281637 0.997271 -0.021658 -0.070576
1.998025 0.285001 0.298663 0.997271 -0.021658 -0.070576
1.989528 -0.208200 0.329937 0.997271 -0.021658 -0.070576
1.988300 -0.209258 0.312911 0.997271 -0.021658 -0.070576
1.781507 0.287750 0.283183 0.997271 -0.021658 -0.070579
1.782735 0.288809 0.300209 0.997271 -0.021658 -0.070579
1.774237 -0.204392 0.331483 0.997271 -0.021658 -0.070579
1.773009 -0.205451 0.314457 0.997271 -0.021658 -0.070579
1.566216 0.291558 0.284728 0.997271 -0.021658 -0.070579
1.567444 0.292616 0.301755 0.997271 -0.021658 -0.070579
1.558947 -0.200585 0.333029 0.997271 -0.021658 -0.070579
1.557719 -0.201643 0.316003 0.997271 -0.021658 -0.070579
1.350926 0.295365 0.286274 0.997271 -0.021658 -0.070579
1.352154 0.296424 0.303300 0.997271 -0.021658 -0.070579
1.343656 -0.196777 0.334575 0.997271 -0.021658 -0.070579
1.342428 -0.197836 0.317549 0.997271 -0.021658 -0.070579
1.135635 0.299173 0.287820 0.997271 -0.021658 -0.070579
1.136863 0.300231 0.304846 0.997271 -0.021658 -0.070579
1.128366 -0.192970 0.336121 0.997271 -0.021658 -0.070579
1.127138 -0.194028 0.319095 0.997271 -0.021658 -0.070579
0.920345 0.302980 0.289366 0.997271 -0.021658 -0.070579
0.921573 0.304038 0.306392 0.997271 -0.021658 -0.070579
0.913075 -0.189162 0.337667 0.997271 -0.021658 -0.070579
0.911847 -0.190221 0.320641 0.997271 -0.021658 -0.070579
0.705055 0.306787 0.290912 0.997271 -0.021658 -0.070579
0.706282 0.307846 0.307938 0.997271 -0.021658 -0.070579
0.697785 -0.185355 0.339213 0.997271 -0.021658 -0.070579
0.696557 -0.186414 0.322186 0.997271 -0.021658 -0.070579
0.489764 0.310595 0.292458 0.997271 -0.021658 -0.070579
0.490992 0.311653 0.309484 0.997271 -0.021658 -0.070579
0.482494 -0.181548 0.340758 0.997271 -0.021658 -0.070579
0.481266 -0.182606 0.323732 0.997271 -0.021658 -0.070579
0.274473 0.314402 0.294004 0.997272 -0.021658 -0.070573
0.275701 0.315461 0.311030 0.997272 -0.021658 -0.070573
0.267204 -0.177740 0.342304 0.997272 -0.021658 -0.070573
0.265976 -0.178799 0.325278 0.997272 -0.021658 -0.070573
0.059183 0.318210 0.295549 0.997271 -0.021658 -0.070579
0.060411 0.319268 0.312576 0.997271 -0.021658 -0.070579
0.051913 -0.173933 0.343850 0.997271 -0.021658 -0.070579
0.050685 -0.174991 0.326824 0.997271 -0.021658 -0.070579
1.988300 -0.209258 0.312911 -0.017195 -0.997848 0.063275
1.989528 -0.208200 0.329937 -0.017195 -0.997848 0.063275
1.981874 -0.208034 0.330479 -0.017195 -0.997848 0.063275
1.980646 -0.209092 0.313453 -0.017195 -0.997848 0.063275
1.773009 -0.205451 0.314457 -0.017193 -0.997848 0.063275
1.774237 -0.204392 0.331483 -0.017193 -0.997848 0.063275
1.766583 -0.204226 0.332025 -0.017193 -0.997848 0.063275
1.765355 -0.205285 0.314999 -0.017193 -0.997848 0.063275
1.557719 -0.201643 0.316003 -0.017195 -0.997848 0.063275
1.558947 -0.200585 0.333029 -0.017195 -0.997848 0.063275
1.551293 -0.200419 0.333571 -0.017195 -0.997848 0.063275
1.550065 -0.201477 0.316545 -0.017195 -0.997848 0.063275
1.342428 -0.197836 0.317549 -0.017193 -0.997848 0.063275
1.343656 -0.196777 0.334575 -0.017193 -0.997848 0.063275
1.336002 -0.196611 0.335117 -0.017193 -0.997848 0.063275
1.334774 -0.197670 0.318090 -0.017193 -0.997848 0.063275
1.127138 -0.194028 0.319095 -0.017195 -0.997848 0.063275
1.128366 -0.192970 0.336121 -0.017195 -0.997848 0.063275
1.120712 -0.192804 0.336663 -0.017195 -0.997848 0.063275
1.119484 -0.193862 0.319636 -0.017195 -0.997848 0.063275
0.911847 -0.190221 0.320641 -0.017195 -0.997848 0.063275
0.913075 -0.189162 0.337667 -0.017195 -0.997848 0.063275
0.905421 -0.188996 0.338208 -0.017195 -0.997848 0.063275
0.904193 -0.190055 0.321182 -0.017195 -0.997848 0.063275
0.696557 -0.186414 0.322186 -0.017194 -0.997848 0.063275
0.697785 -0.185355 0.339213 -0.017194 -0.997848 0.063275
0.690131 -0.185189 0.339754 -0.017194 -0.997848 0.063275
0.688903 -0.186247 0.322728 -0.017194 -0.997848 0.063275
0.481266 -0.182606 0.323732 -0.017195 -0.997848 0.063275
0.482494 -0.181548 0.340758 -0.017195 -0.997848 0.063275
0.474840 -0.181381 0.341300 -0.017195 -0.997848 0.063275
0.473612 -0.182440 0.324274 -0.017195 -0.997848 0.063275
0.265976 -0.178799 0.325278 -0.017191 -0.997848 0.063274
0.267204 -0.177740 0.342304 -0.017191 -0.997848 0.063274
0.259550 -0.177574 0.342846 -0.017191 -0.997848 0.063274
0.258322 -0.178632 0.325820 -0.017191 -0.997848 0.063274
0.050685 -0.174991 0.326824 -0.017194 -0.997848 0.063275
0.051913 -0.173933 0.343850 -0.017194 -0.997848 0.063275
0.044259 -0.173766 0.344392 -0.017194 -0.997848 0.063275
0.043031 -0.174825 0.327366 -0.017194 -0.997848 0.063275
1.980646 -0.209092 0.313453 -0.997271 0.021658 0.070579
1.981874 -0.208034 0.330479 -0.997271 0.021658 0.070579
1.990371 0.285167 0.299205 -0.997271 0.021658 0.070579
1.989143 0.284109 0.282178 -0.997271 0.021658 0.070579
1.765355 -0.205285 0.314999 -0.997271 0.021658 0.070579
1.766583 -0.204226 0.332025 -0.997271 0.021658 0.070579
1.775081 0.288975 0.300750 -0.997271 0.021658 0.070579
1.773853 0.287916 0.283724 -0.997271 0.021658 0.070579
1.550065 -0.201477 0.316545 -0.997271 0.021658 0.070579
1.551293 -0.200419 0.333571 -0.997271 0.021658 0.070579
1.559790 0.292782 0.302296 -0.997271 0.021658 0.070579
1.558563 0.291724 0.285270 -0.997271 0.021658 0.070579
1.334774 -0.197670 0.318090 -0.997271 0.021658 0.070579
1.336002 -0.196611 0.335117 -0.997271 0.021658 0.070579
1.344500 0.296590 0.303842 -0.997271 0.021658 0.070579
1.343272 0.295531 0.286816 -0.997271 0.021658 0.070579
1.119484 -0.193862 0.319636 -0.997271 0.021658 0.070579
1.120712 -0.192804 0.336663 -0.997271 0.021658 0.070579
1.129210 0.300397 0.305388 -0.997271 0.021658 0.070579
1.127982 0.299339 0.288362 -0.997271 0.021658 0.070579
0.904193 -0.190055 0.321182 -0.997271 0.021658 0.070579
0.905421 -0.188996 0.338208 -0.997271 0.021658 0.070579
0.913919 0.304205 0.306934 -0.997271 0.021658 0.070579
0.912691 0.303146 0.289908 -0.997271 0.021658 0.070579
0.688903 -0.186247 0.322728 -0.997271 0.021658 0.070579
0.690131 -0.185189 0.339754 -0.997271 0.021658 0.070579
0.698629 0.308012 0.308480 -0.997271 0.021658 0.070579
0.697401 0.306954 0.291454 -0.997271 0.021658 0.070579
0.473612 -0.182440 0.324274 -0.997271 0.021658 0.070579
0.474840 -0.181381 0.341300 -0.997271 0.021658 0.070579
0.483338 0.311820 0.310026 -0.997271 0.021658 0.070579
0.482110 0.310761 0.292999 -0.997271 0.021658 0.070579
0.258322 -0.178632 0.325820 -0.997272 0.021658 0.070573
0.259550 -0.177574 0.342846 -0.997272 0.021658 0.070573
0.268047 0.315627 0.311571 -0.997272 0.021658 0.070573
0.266820 0.314569 0.294545 -0.997272 0.021658 0.070573
0.043031 -0.174825 0.327366 -0.997271 0.021658 0.070579
0.044259 -0.173766 0.344392 -0.997271 0.021658 0.070579
0.052757 0.319435 0.313117 -0.997271 0.021658 0.070579
0.051529 0.318376 0.296091 -0.997271 0.021658 0.070579
1.998025 0.285001 0.298663 0.017195 0.997848 -0.063275
1.996797 0.283943 0.281637 0.017195 0.997848 -0.063275
1.989143 0.284109 0.282178 0.017195 0.997848 -0.063275
1.990371 0.285167 0.299205 0.017195 0.997848 -0.063275
1.782735 0.288809 0.300209 0.017191 0.997848 -0.063276
1.781507 0.287750 0.283183 0.017191 0.997848 -0.063276
1.773853 0.287916 0.283724 0.017191 0.997848 -0.063276
1.775081 0.288975 0.300750 0.017191 0.997848 -0.063276
1.567444 0.292616 0.301755 0.017191 0.997848 -0.063274
1.566216 0.291558 0.284728 0.017191 0.997848 -0.063274
1.558563 0.291724 0.285270 0.017191 0.997848 -0.063274
1.559790 0.292782 0.302296 0.017191 0.997848 -0.063274
1.352154 0.296424 0.303300 0.017195 0.997848 -0.063275
1.350926 0.295365 0.286274 0.017195 0.997848 -0.063275
1.343272 0.295531 0.286816 0.017195 0.997848 -0.063275
1.344500 0.296590 0.303842 0.017195 0.997848 -0.063275
1.136863 0.300231 0.304846 0.017191 0.997848 -0.063274
1.135635 0.299173 0.287820 0.017191 0.997848 -0.063274
1.127982 0.299339 0.288362 0.017191 0.997848 -0.063274
1.129210 0.300397 0.305388 0.017191 0.997848 -0.063274
0.921573 0.304038 0.306392 0.017190 0.997848 -0.063274
0.920345 0.302980 0.289366 0.017190 0.997848 -0.063274
0.912691 0.303146 0.289908 0.017190 0.997848 -0.063274
0.913919 0.304205 0.306934 0.017190 0.997848 -0.063274
0.706282 0.307846 0.307938 0.017195 0.997848 -0.063275
0.705055 0.306787 0.290912 0.017195 0.997848 -0.063275
0.697401 0.306954 0.291454 0.017195 0.997848 -0.063275
0.698629 0.308012 0.308480 0.017195 0.997848 -0.063275
0.490992 0.311653 0.309484 0.017195 0.997848 -0.063275
0.489764 0.310595 0.292458 0.017195 0.997848 -0.063275
0.482110 0.310761 0.292999 0.017195 0.997848 -0.063275
0.483338 0.311820 0.310026 0.017195 0.997848 -0.063275
0.275701 0.315461 0.311030 0.017191 0.997848 -0.063274
0.274473 0.314402 0.294004 0.017191 0.997848 -0.063274
0.266820 0.314569 0.294545 0.017191 0.997848 -0.063274
0.268047 0.315627 0.311571 0.017191 0.997848 -0.063274
0.060411 0.319268 0.312576 0.017194 0.997848 -0.063275
0.059183 0.318210 0.295549 0.017194 0.997848 -0.063275
0.051529 0.318376 0.296091 0.017194 0.997848 -0.063275
0.052757 0.319435 0.313117 0.017194 0.997848 -0.063275
4 0 1 2 3
4 4 5 6 7
4 8 9 10 11
4 12 13 14 15
4 16 17 18 19
4 20 21 22 23
4 24 25 26 27
4 28 29 30 31
4 32 33 34 35
4 36 37 38 39
4 40 41 42 43
4 44 45 46 47
4 48 49 50 51
4 52 53 54 55
4 56 57 58 59
4 60 61 62 63
4 64 65 66 67
4 68 69 70 71
4 72 73 74 75
4 76 77 78 79
4 80 81 82 83
4 84 85 86 87
4 88 89 90 91
4 92 93 94 95
4 96 97 98 99
4 100 101 102 103
4 104 105 106 107
4 108 109 110 111
4 112 113 114 115
4 116 117 118 119
4 120 121 122 123
4 124 125 126 127
4 128 129 130 131
4 132 133 134 135
4 136 137 138 139
4 140 141 142 143
4 144 145 146 147
4 148 149 150 151
4 152 153 154 155
4 156 157 158 159
4 160 161 162 163
4 164 165 166 167
4 168 169 170 171
4 172 173 174 175
4 176 177 178 179
4 180 181 182 183
4 184 185 186 187
4 188 189 190 191
4 192 193 194 195
4 196 197 198 199
4 200 201 202 203
4 204 205 206 207
4 208 209 210 211
4 212 213 214 215
4 216 217 218 219
4 220 221 222 223
4 224 225 226 227
4 228 229 230 231
4 232 233 234 235
4 236 237 238 239
