ply
format ascii 1.0
comment Created by Blender 2.79 (sub 0) - www.blender.org, source file: 'guitarMinimal.blend'
element vertex 288
property float x
property float y
property float z
property float nx
property float ny
property float nz
element face 72
property list uchar uint vertex_indices
end_header
-0.145141 0.320046 0.292371 -0.071797 -0.061889 -0.995497
-0.153588 -0.170202 0.323459 -0.071797 -0.061889 -0.995497
-0.161242 -0.170036 0.324000 -0.071797 -0.061889 -0.995497
-0.152795 0.320212 0.292913 -0.071797 -0.061889 -0.995497
-0.360805 0.309168 0.293139 -0.071797 -0.061889 -0.995497
-0.368640 -0.145517 0.321971 -0.071797 -0.061889 -0.995497
-0.376293 -0.145350 0.322513 -0.071797 -0.061889 -0.995497
-0.368459 0.309334 0.293681 -0.071797 -0.061889 -0.995497
-0.576247 0.311250 0.293085 -0.071795 -0.061889 -0.995497
-0.584180 -0.149191 0.322282 -0.071795 -0.061889 -0.995497
-0.591834 -0.149025 0.322824 -0.071795 -0.061889 -0.995497
-0.583901 0.311416 0.293627 -0.071795 -0.061889 -0.995497
-0.791716 0.311711 0.293134 -0.071797 -0.061889 -0.995497
-0.799493 -0.139658 0.321756 -0.071797 -0.061889 -0.995497
-0.807147 -0.139492 0.322297 -0.071797 -0.061889 -0.995497
-0.799370 0.311878 0.293675 -0.071797 -0.061889 -0.995497
-1.007236 0.309193 0.293371 -0.071799 -0.061889 -0.995497
-1.014839 -0.132069 0.321352 -0.071799 -0.061889 -0.995497
-1.022493 -0.131903 0.321894 -0.071799 -0.061889 -0.995497
-1.014890 0.309359 0.293913 -0.071799 -0.061889 -0.995497
-1.222730 0.308229 0.293511 -0.071794 -0.061889 -0.995498
-1.230011 -0.114371 0.320308 -0.071794 -0.061889 -0.995498
-1.237665 -0.114205 0.320850 -0.071794 -0.061889 -0.995498
-1.230384 0.308395 0.294052 -0.071794 -0.061889 -0.995498
-1.438143 0.311931 0.293354 -0.071798 -0.061889 -0.995497
-1.445424 -0.110670 0.320151 -0.071798 -0.061889 -0.995497
-1.453078 -0.110504 0.320693 -0.071798 -0.061889 -0.995497
-1.445797 0.312097 0.293895 -0.071798 -0.061889 -0.995497
-1.653556 0.315632 0.293197 -0.071797 -0.061889 -0.995497
-1.660838 -0.106968 0.319995 -0.071797 -0.061889 -0.995497
-1.668492 -0.106802 0.320536 -0.071797 -0.061889 -0.995497
-1.661210 0.315798 0.293739 -0.071797 -0.061889 -0.995497
-1.869114 0.310962 0.293571 -0.071799 -0.061889 -0.995497
-1.875978 -0.087382 0.318831 -0.071799 -0.061889 -0.995497
-1.883631 -0.087216 0.319372 -0.071799 -0.061889 -0.995497
-1.876768 0.311129 0.294113 -0.071799 -0.061889 -0.995497
-2.084527 0.314664 0.293414 -0.071799 -0.061889 -0.995497
-2.091391 -0.083680 0.318674 -0.071799 -0.061889 -0.995497
-2.099045 -0.083514 0.319216 -0.071799 -0.061889 -0.995497
-2.092181 0.314830 0.293956 -0.071799 -0.061889 -0.995497
-2.299941 0.318366 0.293258 -0.071794 -0.061889 -0.995498
-2.306804 -0.079979 0.318517 -0.071794 -0.061889 -0.995498
-2.314458 -0.079813 0.319059 -0.071794 -0.061889 -0.995498
-2.307595 0.318532 0.293799 -0.071794 -0.061889 -0.995498
-2.515354 0.322067 0.293101 -0.071798 -0.061889 -0.995497
-2.522217 -0.076277 0.318360 -0.071798 -0.061889 -0.995497
-2.529871 -0.076111 0.318902 -0.071798 -0.061889 -0.995497
-2.523008 0.322233 0.293643 -0.071798 -0.061889 -0.995497
-0.143913 0.321104 0.309398 0.071797 0.061889 0.995497
-0.151567 0.321270 0.309939 0.071797 0.061889 0.995497
-0.160014 -0.168977 0.341026 0.071797 0.061889 0.995497
-0.152360 -0.169144 0.340485 0.071797 0.061889 0.995497
-0.359578 0.310226 0.310165 0.071796 0.061889 0.995497
-0.367231 0.310393 0.310707 0.071796 0.061889 0.995497
-0.375066 -0.144292 0.339539 0.071796 0.061889 0.995497
-0.367412 -0.144458 0.338997 0.071796 0.061889 0.995497
-0.575019 0.312308 0.310111 0.071797 0.061889 0.995497
-0.582673 0.312474 0.310653 0.071797 0.061889 0.995497
-0.590606 -0.147967 0.339850 0.071797 0.061889 0.995497
-0.582952 -0.148133 0.339308 0.071797 0.061889 0.995497
-0.790488 0.312770 0.310160 0.071797 0.061889 0.995497
-0.798142 0.312936 0.310702 0.071797 0.061889 0.995497
-0.805919 -0.138433 0.339324 0.071797 0.061889 0.995497
-0.798265 -0.138600 0.338782 0.071797 0.061889 0.995497
-1.006008 0.310251 0.310398 0.071796 0.061889 0.995497
-1.013662 0.310418 0.310939 0.071796 0.061889 0.995497
-1.021265 -0.130844 0.338920 0.071796 0.061889 0.995497
-1.013611 -0.131010 0.338379 0.071796 0.061889 0.995497
-1.221502 0.309288 0.310537 0.071794 0.061889 0.995498
-1.229156 0.309454 0.311078 0.071794 0.061889 0.995498
-1.236437 -0.113147 0.337876 0.071794 0.061889 0.995498
-1.228783 -0.113313 0.337334 0.071794 0.061889 0.995498
-1.436915 0.312989 0.310380 0.071798 0.061889 0.995497
-1.444569 0.313155 0.310922 0.071798 0.061889 0.995497
-1.451850 -0.109445 0.337719 0.071798 0.061889 0.995497
-1.444196 -0.109611 0.337178 0.071798 0.061889 0.995497
-1.652329 0.316691 0.310223 0.071797 0.061889 0.995497
-1.659982 0.316857 0.310765 0.071797 0.061889 0.995497
-1.667264 -0.105743 0.337563 0.071797 0.061889 0.995497
-1.659610 -0.105910 0.337021 0.071797 0.061889 0.995497
-1.867886 0.312021 0.310597 0.071799 0.061889 0.995497
-1.875540 0.312187 0.311139 0.071799 0.061889 0.995497
-1.882403 -0.086157 0.336398 0.071799 0.061889 0.995497
-1.874750 -0.086324 0.335857 0.071799 0.061889 0.995497
-2.083299 0.315723 0.310441 0.071796 0.061889 0.995497
-2.090953 0.315889 0.310982 0.071796 0.061889 0.995497
-2.097817 -0.082456 0.336242 0.071796 0.061889 0.995497
-2.090163 -0.082622 0.335700 0.071796 0.061889 0.995497
-2.298713 0.319424 0.310284 0.071796 0.061889 0.995497
-2.306367 0.319590 0.310825 0.071796 0.061889 0.995497
-2.313230 -0.078754 0.336085 0.071796 0.061889 0.995497
-2.305576 -0.078920 0.335543 0.071796 0.061889 0.995497
-2.514126 0.323126 0.310127 0.071798 0.061889 0.995497
-2.521780 0.323292 0.310669 0.071798 0.061889 0.995497
-2.528643 -0.075052 0.335928 0.071798 0.061889 0.995497
-2.520989 -0.075219 0.335387 0.071798 0.061889 0.995497
-0.145141 0.320046 0.292371 0.997271 -0.021658 -0.070578
-0.143913 0.321104 0.309398 0.997271 -0.021658 -0.070578
-0.152360 -0.169144 0.340485 0.997271 -0.021658 -0.070578
-0.153588 -0.170202 0.323459 0.997271 -0.021658 -0.070578
-0.360805 0.309168 0.293139 0.997271 -0.021658 -0.070579
-0.359578 0.310226 0.310165 0.997271 -0.021658 -0.070579
-0.367412 -0.144458 0.338997 0.997271 -0.021658 -0.070579
-0.368640 -0.145517 0.321971 0.997271 -0.021658 -0.070579
-0.576247 0.311250 0.293085 0.997271 -0.021658 -0.070576
-0.575019 0.312308 0.310111 0.997271 -0.021658 -0.070576
-0.582952 -0.148133 0.339308 0.997271 -0.021658 -0.070576
-0.584180 -0.149191 0.322282 0.997271 -0.021658 -0.070576
-0.791716 0.311711 0.293134 0.997271 -0.021659 -0.070579
-0.790488 0.312770 0.310160 0.997271 -0.021659 -0.070579
-0.798265 -0.138600 0.338782 0.997271 -0.021659 -0.070579
-0.799493 -0.139658 0.321756 0.997271 -0.021659 -0.070579
-1.007236 0.309193 0.293371 0.997271 -0.021658 -0.070579
-1.006008 0.310251 0.310398 0.997271 -0.021658 -0.070579
-1.013611 -0.131010 0.338379 0.997271 -0.021658 -0.070579
-1.014839 -0.132069 0.321352 0.997271 -0.021658 -0.070579
-1.222730 0.308229 0.293511 0.997271 -0.021658 -0.070579
-1.221502 0.309288 0.310537 0.997271 -0.021658 -0.070579
-1.228783 -0.113313 0.337334 0.997271 -0.021658 -0.070579
-1.230011 -0.114371 0.320308 0.997271 -0.021658 -0.070579
-1.438143 0.311931 0.293354 0.997271 -0.021658 -0.070579
-1.436915 0.312989 0.310380 0.997271 -0.021658 -0.070579
-1.444196 -0.109611 0.337178 0.997271 -0.021658 -0.070579
-1.445424 -0.110670 0.320151 0.997271 -0.021658 -0.070579
-1.653556 0.315632 0.293197 0.997272 -0.021658 -0.070573
-1.652329 0.316691 0.310223 0.997272 -0.021658 -0.070573
-1.659610 -0.105910 0.337021 0.997272 -0.021658 -0.070573
-1.660838 -0.106968 0.319995 0.997272 -0.021658 -0.070573
-1.869114 0.310962 0.293571 0.997271 -0.021659 -0.070579
-1.867886 0.312021 0.310597 0.997271 -0.021659 -0.070579
-1.874750 -0.086324 0.335857 0.997271 -0.021659 -0.070579
-1.875978 -0.087382 0.318831 0.997271 -0.021659 -0.070579
-2.084527 0.314664 0.293414 0.997270 -0.021659 -0.070586
-2.083299 0.315723 0.310441 0.997270 -0.021659 -0.070586
-2.090163 -0.082622 0.335700 0.997270 -0.021659 -0.070586
-2.091391 -0.083680 0.318674 0.997270 -0.021659 -0.070586
-2.299941 0.318366 0.293258 0.997270 -0.021659 -0.070586
-2.298713 0.319424 0.310284 0.997270 -0.021659 -0.070586
-2.305576 -0.078920 0.335543 0.997270 -0.021659 -0.070586
-2.306804 -0.079979 0.318517 0.997270 -0.021659 -0.070586
-2.515354 0.322067 0.293101 0.997271 -0.021658 -0.070573
-2.514126 0.323126 0.310127 0.997271 -0.021658 -0.070573
-2.520989 -0.075219 0.335387 0.997271 -0.021658 -0.070573
-2.522217 -0.076277 0.318360 0.997271 -0.021658 -0.070573
-0.153588 -0.170202 0.323459 -0.017195 -0.997848 0.063275
-0.152360 -0.169144 0.340485 -0.017195 -0.997848 0.063275
-0.160014 -0.168977 0.341026 -0.017195 -0.997848 0.063275
-0.161242 -0.170036 0.324000 -0.017195 -0.997848 0.063275
-0.368640 -0.145517 0.321971 -0.017191 -0.997848 0.063274
-0.367412 -0.144458 0.338997 -0.017191 -0.997848 0.063274
-0.375066 -0.144292 0.339539 -0.017191 -0.997848 0.063274
-0.376293 -0.145350 0.322513 -0.017191 -0.997848 0.063274
-0.584180 -0.149191 0.322282 -0.017191 -0.997848 0.063274
-0.582952 -0.148133 0.339308 -0.017191 -0.997848 0.063274
-0.590606 -0.147967 0.339850 -0.017191 -0.997848 0.063274
-0.591834 -0.149025 0.322824 -0.017191 -0.997848 0.063274
-0.799493 -0.139658 0.321756 -0.017191 -0.997848 0.063274
-0.798265 -0.138600 0.338782 -0.017191 -0.997848 0.063274
-0.805919 -0.138433 0.339324 -0.017191 -0.997848 0.063274
-0.807147 -0.139492 0.322297 -0.017191 -0.997848 0.063274
-1.014839 -0.132069 0.321352 -0.017193 -0.997848 0.063275
-1.013611 -0.131010 0.338379 -0.017193 -0.997848 0.063275
-1.021265 -0.130844 0.338920 -0.017193 -0.997848 0.063275
-1.022493 -0.131903 0.321894 -0.017193 -0.997848 0.063275
-1.230011 -0.114371 0.320308 -0.017193 -0.997848 0.063275
-1.228783 -0.113313 0.337334 -0.017193 -0.997848 0.063275
-1.236437 -0.113147 0.337876 -0.017193 -0.997848 0.063275
-1.237665 -0.114205 0.320850 -0.017193 -0.997848 0.063275
-1.445424 -0.110670 0.320151 -0.017193 -0.997848 0.063275
-1.444196 -0.109611 0.337178 -0.017193 -0.997848 0.063275
-1.451850 -0.109445 0.337719 -0.017193 -0.997848 0.063275
-1.453078 -0.110504 0.320693 -0.017193 -0.997848 0.063275
-1.660838 -0.106968 0.319995 -0.017193 -0.997848 0.063274
-1.659610 -0.105910 0.337021 -0.017193 -0.997848 0.063274
-1.667264 -0.105743 0.337563 -0.017193 -0.997848 0.063274
-1.668492 -0.106802 0.320536 -0.017193 -0.997848 0.063274
-1.875978 -0.087382 0.318831 -0.017191 -0.997848 0.063274
-1.874750 -0.086324 0.335857 -0.017191 -0.997848 0.063274
-1.882403 -0.086157 0.336398 -0.017191 -0.997848 0.063274
-1.883631 -0.087216 0.319372 -0.017191 -0.997848 0.063274
-2.091391 -0.083680 0.318674 -0.017192 -0.997848 0.063275
-2.090163 -0.082622 0.335700 -0.017192 -0.997848 0.063275
-2.097817 -0.082456 0.336242 -0.017192 -0.997848 0.063275
-2.099045 -0.083514 0.319216 -0.017192 -0.997848 0.063275
-2.306804 -0.079979 0.318517 -0.017195 -0.997848 0.063275
-2.305576 -0.078920 0.335543 -0.017195 -0.997848 0.063275
-2.313230 -0.078754 0.336085 -0.017195 -0.997848 0.063275
-2.314458 -0.079813 0.319059 -0.017195 -0.997848 0.063275
-2.522217 -0.076277 0.318360 -0.017192 -0.997848 0.063275
-2.520989 -0.075219 0.335387 -0.017192 -0.997848 0.063275
-2.528643 -0.075052 0.335928 -0.017192 -0.997848 0.063275
-2.529871 -0.076111 0.318902 -0.017192 -0.997848 0.063275
-0.161242 -0.170036 0.324000 -0.997271 0.021658 0.070578
-0.160014 -0.168977 0.341026 -0.997271 0.021658 0.070578
-0.151567 0.321270 0.309939 -0.997271 0.021658 0.070578
-0.152795 0.320212 0.292913 -0.997271 0.021658 0.070578
-0.376293 -0.145350 0.322513 -0.997271 0.021658 0.070577
-0.375066 -0.144292 0.339539 -0.997271 0.021658 0.070577
-0.367231 0.310393 0.310707 -0.997271 0.021658 0.070577
-0.368459 0.309334 0.293681 -0.997271 0.021658 0.070577
-0.591834 -0.149025 0.322824 -0.997271 0.021658 0.070576
-0.590606 -0.147967 0.339850 -0.997271 0.021658 0.070576
-0.582673 0.312474 0.310653 -0.997271 0.021658 0.070576
-0.583901 0.311416 0.293627 -0.997271 0.021658 0.070576
-0.807147 -0.139492 0.322297 -0.997271 0.021659 0.070579
-0.805919 -0.138433 0.339324 -0.997271 0.021659 0.070579
-0.798142 0.312936 0.310702 -0.997271 0.021659 0.070579
-0.799370 0.311878 0.293675 -0.997271 0.021659 0.070579
-1.022493 -0.131903 0.321894 -0.997271 0.021658 0.070576
-1.021265 -0.130844 0.338920 -0.997271 0.021658 0.070576
-1.013662 0.310418 0.310939 -0.997271 0.021658 0.070576
-1.014890 0.309359 0.293913 -0.997271 0.021658 0.070576
-1.237665 -0.114205 0.320850 -0.997271 0.021658 0.070579
-1.236437 -0.113147 0.337876 -0.997271 0.021658 0.070579
-1.229156 0.309454 0.311078 -0.997271 0.021658 0.070579
-1.230384 0.308395 0.294052 -0.997271 0.021658 0.070579
-1.453078 -0.110504 0.320693 -0.997271 0.021658 0.070579
-1.451850 -0.109445 0.337719 -0.997271 0.021658 0.070579
-1.444569 0.313155 0.310922 -0.997271 0.021658 0.070579
-1.445797 0.312097 0.293895 -0.997271 0.021658 0.070579
-1.668492 -0.106802 0.320536 -0.997271 0.021658 0.070573
-1.667264 -0.105743 0.337563 -0.997271 0.021658 0.070573
-1.659982 0.316857 0.310765 -0.997271 0.021658 0.070573
-1.661210 0.315798 0.293739 -0.997271 0.021658 0.070573
-1.883631 -0.087216 0.319372 -0.997271 0.021659 0.070579
-1.882403 -0.086157 0.336398 -0.997271 0.021659 0.070579
-1.875540 0.312187 0.311139 -0.997271 0.021659 0.070579
-1.876768 0.311129 0.294113 -0.997271 0.021659 0.070579
-2.099045 -0.083514 0.319216 -0.997271 0.021658 0.070573
-2.097817 -0.082456 0.336242 -0.997271 0.021658 0.070573
-2.090953 0.315889 0.310982 -0.997271 0.021658 0.070573
-2.092181 0.314830 0.293956 -0.997271 0.021658 0.070573
-2.314458 -0.079813 0.319059 -0.997270 0.021659 0.070586
-2.313230 -0.078754 0.336085 -0.997270 0.021659 0.070586
-2.306367 0.319590 0.310825 -0.997270 0.021659 0.070586
-2.307595 0.318532 0.293799 -0.997270 0.021659 0.070586
-2.529871 -0.076111 0.318902 -0.997271 0.021658 0.070573
-2.528643 -0.075052 0.335928 -0.997271 0.021658 0.070573
-2.521780 0.323292 0.310669 -0.997271 0.021658 0.070573
-2.523008 0.322233 0.293643 -0.997271 0.021658 0.070573
-0.143913 0.321104 0.309398 0.017195 0.997848 -0.063275
-0.145141 0.320046 0.292371 0.017195 0.997848 -0.063275
-0.152795 0.320212 0.292913 0.017195 0.997848 -0.063275
-0.151567 0.321270 0.309939 0.017195 0.997848 -0.063275
-0.359578 0.310226 0.310165 0.017195 0.997848 -0.063275
-0.360805 0.309168 0.293139 0.017195 0.997848 -0.063275
-0.368459 0.309334 0.293681 0.017195 0.997848 -0.063275
-0.367231 0.310393 0.310707 0.017195 0.997848 -0.063275
-0.575019 0.312308 0.310111 0.017191 0.997848 -0.063274
-0.576247 0.311250 0.293085 0.017191 0.997848 -0.063274
-0.583901 0.311416 0.293627 0.017191 0.997848 -0.063274
-0.582673 0.312474 0.310653 0.017191 0.997848 -0.063274
-0.790488 0.312770 0.310160 0.017191 0.997848 -0.063274
-0.791716 0.311711 0.293134 0.017191 0.997848 -0.063274
-0.799370 0.311878 0.293675 0.017191 0.997848 -0.063274
-0.798142 0.312936 0.310702 0.017191 0.997848 -0.063274
-1.006008 0.310251 0.310398 0.017193 0.997848 -0.063275
-1.007236 0.309193 0.293371 0.017193 0.997848 -0.063275
-1.014890 0.309359 0.293913 0.017193 0.997848 -0.063275
-1.013662 0.310418 0.310939 0.017193 0.997848 -0.063275
-1.221502 0.309288 0.310537 0.017193 0.997848 -0.063275
-1.222730 0.308229 0.293511 0.017193 0.997848 -0.063275
-1.230384 0.308395 0.294052 0.017193 0.997848 -0.063275
-1.229156 0.309454 0.311078 0.017193 0.997848 -0.063275
-1.436915 0.312989 0.310380 0.017190 0.997848 -0.063274
-1.438143 0.311931 0.293354 0.017190 0.997848 -0.063274
-1.445797 0.312097 0.293895 0.017190 0.997848 -0.063274
-1.444569 0.313155 0.310922 0.017190 0.997848 -0.063274
-1.652329 0.316691 0.310223 0.017191 0.997848 -0.063274
-1.653556 0.315632 0.293197 0.017191 0.997848 -0.063274
-1.661210 0.315798 0.293739 0.017191 0.997848 -0.063274
-1.659982 0.316857 0.310765 0.017191 0.997848 -0.063274
-1.867886 0.312021 0.310597 0.017191 0.997848 -0.063274
-1.869114 0.310962 0.293571 0.017191 0.997848 -0.063274
-1.876768 0.311129 0.294113 0.017191 0.997848 -0.063274
-1.875540 0.312187 0.311139 0.017191 0.997848 -0.063274
-2.083299 0.315723 0.310441 0.017191 0.997848 -0.063274
-2.084527 0.314664 0.293414 0.017191 0.997848 -0.063274
-2.092181 0.314830 0.293956 0.017191 0.997848 -0.063274
-2.090953 0.315889 0.310982 0.017191 0.997848 -0.063274
-2.298713 0.319424 0.310284 0.017194 0.997848 -0.063275
-2.299941 0.318366 0.293258 0.017194 0.997848 -0.063275
-2.307595 0.318532 0.293799 0.017194 0.997848 -0.063275
-2.306367 0.319590 0.310825 0.017194 0.997848 -0.063275
-2.514126 0.323126 0.310127 0.017194 0.997848 -0.063275
-2.515354 0.322067 0.293101 0.017194 0.997848 -0.063275
-2.523008 0.322233 0.293643 0.017194 0.997848 -0.063275
-2.521780 0.323292 0.310669 0.017194 0.997848 -0.063275
4 0 1 2 3
4 4 5 6 7
4 8 9 10 11
4 12 13 14 15
4 16 17 18 19
4 20 21 22 23
4 24 25 26 27
4 28 29 30 31
4 32 33 34 35
4 36 37 38 39
4 40 41 42 43
4 44 45 46 47
4 48 49 50 51
4 52 53 54 55
4 56 57 58 59
4 60 61 62 63
4 64 65 66 67
4 68 69 70 71
4 72 73 74 75
4 76 77 78 79
4 80 81 82 83
4 84 85 86 87
4 88 89 90 91
4 92 93 94 95
4 96 97 98 99
4 100 101 102 103
4 104 105 106 107
4 108 109 110 111
4 112 113 114 115
4 116 117 118 119
4 120 121 122 123
4 124 125 126 127
4 128 129 130 131
4 132 133 134 135
4 136 137 138 139
4 140 141 142 143
4 144 145 146 147
4 148 149 150 151
4 152 153 154 155
4 156 157 158 159
4 160 161 162 163
4 164 165 166 167
4 168 169 170 171
4 172 173 174 175
4 176 177 178 179
4 180 181 182 183
4 184 185 186 187
4 188 189 190 191
4 192 193 194 195
4 196 197 198 199
4 200 201 202 203
4 204 205 206 207
4 208 209 210 211
4 212 213 214 215
4 216 217 218 219
4 220 221 222 223
4 224 225 226 227
4 228 229 230 231
4 232 233 234 235
4 236 237 238 239
4 240 241 242 243
4 244 245 246 247
4 248 249 250 251
4 252 253 254 255
4 256 257 258 259
4 260 261 262 263
4 264 265 266 267
4 268 269 270 271
4 272 273 274 275
4 276 277 278 279
4 280 281 282 283
4 284 285 286 287
